<svg xmlns="http://www.w3.org/2000/svg" width="797" height="49.102" viewBox="0 0 797 49.102">
  <g id="paymentwall-cards" transform="translate(-489 -1490.5)">
    <g id="visa" transform="translate(489 1491)">
      <path id="Path_169" data-name="Path 169" d="M69.749,123.43a4.123,4.123,0,0,1-4.123,4.123H4.123A4.123,4.123,0,0,1,0,123.43V83.574a4.123,4.123,0,0,1,4.123-4.123h61.5a4.123,4.123,0,0,1,4.123,4.123V123.43Z" transform="translate(0 -79.451)" fill="#fff"/>
      <path id="Path_170" data-name="Path 170" d="M41.828,199.037,40.19,191.18a1.953,1.953,0,0,0-2.112-1.448H30.569l-.067.359C36.35,191.509,40.22,194.929,41.828,199.037Z" transform="translate(-26.347 -174.709)" fill="#f79f1a"/>
      <g id="Group_98" data-name="Group 98" transform="translate(0 0)">
        <path id="Path_171" data-name="Path 171" d="M191.38,190.892h-4.852l-3.03,17.781h4.843Z" transform="translate(-158.501 -175.711)" fill="#059bbf"/>
        <path id="Path_172" data-name="Path 172" d="M75.305,208.733l7.63-17.752H77.8l-4.747,12.128-.507-1.831a18.972,18.972,0,0,0-6.711-7.37l4.339,14.83Z" transform="translate(-56.867 -175.788)" fill="#059bbf"/>
        <path id="Path_173" data-name="Path 173" d="M255.193,200.932c.018-2.019-1.278-3.559-4.071-4.83-1.7-.821-2.732-1.369-2.72-2.2,0-.736.876-1.528,2.775-1.528a8.948,8.948,0,0,1,3.627.682l.438.2.657-3.852a12.565,12.565,0,0,0-4.345-.743c-4.789,0-8.161,2.41-8.191,5.867-.031,2.556,2.41,3.98,4.248,4.832,1.886.868,2.519,1.424,2.507,2.2-.012,1.191-1.5,1.734-2.9,1.734a10.169,10.169,0,0,1-4.565-.932l-.62-.285-.681,3.985a15.291,15.291,0,0,0,5.4.944C251.846,207.007,255.157,204.627,255.193,200.932Z" transform="translate(-208.476 -173.782)" fill="#059bbf"/>
        <path id="Path_174" data-name="Path 174" d="M346.495,206.125l6.207.006c.146.619.59,2.665.59,2.665h4.5l-3.925-17.769h-3.742a2.412,2.412,0,0,0-2.538,1.472l-7.2,16.3h5.094S346.306,206.606,346.495,206.125Zm3.323-8.611c-.024.049.4-1.028.645-1.7l.328,1.533s.925,4.248,1.12,5.136h-4.023C348.29,201.464,349.817,197.514,349.817,197.514Z" transform="translate(-294.015 -175.827)" fill="#059bbf"/>
        <path id="Path_175" data-name="Path 175" d="M65.626,79.451H4.123A4.123,4.123,0,0,0,0,83.574v4.279H69.749V83.574A4.123,4.123,0,0,0,65.626,79.451Z" transform="translate(0 -79.451)" fill="#059bbf"/>
      </g>
      <path id="Path_176" data-name="Path 176" d="M65.626,379.273H4.123A4.123,4.123,0,0,1,0,375.15v-4.279H69.749v4.279A4.123,4.123,0,0,1,65.626,379.273Z" transform="translate(0 -331.171)" fill="#f79f1a"/>
      <path id="Path_177" data-name="Path 177" d="M2.931,123.43V83.574a4.123,4.123,0,0,1,4.123-4.123H4.123A4.123,4.123,0,0,0,0,83.574V123.43a4.123,4.123,0,0,0,4.123,4.123H7.055A4.123,4.123,0,0,1,2.931,123.43Z" transform="translate(0 -79.451)" fill="#202121" opacity="0.15"/>
    </g>
    <g id="american-express" transform="translate(664.418 1491)">
      <path id="Path_178" data-name="Path 178" d="M69.749,123.43a4.123,4.123,0,0,1-4.123,4.123H4.123A4.123,4.123,0,0,1,0,123.43V83.574a4.123,4.123,0,0,1,4.123-4.123h61.5a4.123,4.123,0,0,1,4.123,4.123V123.43Z" transform="translate(0 -79.451)" fill="#306fc5"/>
      <path id="Path_179" data-name="Path 179" d="M2.931,123.43V83.574a4.123,4.123,0,0,1,4.123-4.123H4.123A4.123,4.123,0,0,0,0,83.574V123.43a4.123,4.123,0,0,0,4.123,4.123H7.055A4.124,4.124,0,0,1,2.931,123.43Z" transform="translate(0 -79.451)" fill="#202121" opacity="0.15"/>
      <g id="Group_99" data-name="Group 99" transform="translate(5.006 14.133)">
        <path id="Path_180" data-name="Path 180" d="M74.59,203.93h2.084l-1.042-2.652Z" transform="translate(-69.435 -198.815)" fill="#fff"/>
        <path id="Path_181" data-name="Path 181" d="M155.946,286.107v1.232h3.505v1.326h-3.505v1.421h3.884l1.8-1.99-1.7-1.99Z" transform="translate(-139.708 -272.088)" fill="#fff"/>
        <path id="Path_182" data-name="Path 182" d="M349.69,201.278l-1.137,2.652h2.179Z" transform="translate(-306.076 -198.815)" fill="#fff"/>
        <path id="Path_183" data-name="Path 183" d="M214.731,286.64v-5.4l-2.463,2.653Z" transform="translate(-188.357 -267.885)" fill="#fff"/>
        <path id="Path_184" data-name="Path 184" d="M245.2,286.96a.956.956,0,0,0-1.043-.853h-1.989v1.705h2.084C244.819,287.812,245.2,287.528,245.2,286.96Z" transform="translate(-214.183 -272.088)" fill="#fff"/>
        <path id="Path_185" data-name="Path 185" d="M296.273,288.226a.739.739,0,0,0,.285-.663.527.527,0,0,0-.285-.663,1.842,1.842,0,0,0-.757-.095h-1.895v1.516h1.895A1.844,1.844,0,0,0,296.273,288.226Z" transform="translate(-258.628 -272.691)" fill="#fff"/>
        <path id="Path_186" data-name="Path 186" d="M88.034,183.2v1.137l-.568-1.137H83.014v1.137l-.569-1.137H76.383a5.766,5.766,0,0,0-2.652.568V183.2H69.468v.568a2.732,2.732,0,0,0-1.8-.568H52.418l-1.042,2.368L50.334,183.2H45.5v1.137l-.474-1.137H40.861l-1.895,4.452-2.178,4.831-.04.095H41.68l.034-.095.569-1.421h1.231l.568,1.516h5.494v-1.137l.474,1.137H52.8l.473-1.137v1.137H66.437v-2.463h.19c.189,0,.189,0,.189.284v2.084h6.82v-.568a5.667,5.667,0,0,0,2.557.568h2.842l.568-1.515H80.93l.568,1.515h5.494V191.06l.853,1.421H92.3V183.2H88.034Zm-32.111,7.957H54.407v-5.21l-.095.217v0l-2.2,5h-1.4l-2.273-5.21v5.21h-3.22l-.663-1.421H41.335l-.663,1.421H39.006l2.8-6.631h2.368l2.652,6.346v-6.346h2.51l.045.095h0l1.2,2.6.858,1.949.03-.1,1.894-4.547h2.558v6.631Zm6.536-5.21H58.764v1.231h3.6V188.5h-3.6v1.327h3.694v1.42h-5.3v-6.725h5.3v1.421Zm6.756,2.443.009.006a1.079,1.079,0,0,1,.093.112,1.822,1.822,0,0,1,.336,1.11v.027c0,.005,0,.01,0,.015s0,.005,0,.008c0,.052,0,.105,0,.163v1.326H68.237V190.4a2.254,2.254,0,0,0-.285-1.326.862.862,0,0,0-.279-.19,1.892,1.892,0,0,0-.858-.093H65.11v2.368H63.5v-6.631h3.6a3.632,3.632,0,0,1,1.894.284,1.6,1.6,0,0,1,.755,1.473,1.882,1.882,0,0,1-1.134,1.748A1.268,1.268,0,0,1,69.215,188.388Zm3.19,2.767h-1.61v-6.631H72.4Zm18.471,0H88.792l-3.031-5.021V190.3l-.01-.01v.867h-1.6v0H82.54l-.568-1.421H78.656l-.568,1.515h-1.8a2.847,2.847,0,0,1-3.125-3.315,3.883,3.883,0,0,1,.852-2.653,2.983,2.983,0,0,1,2.368-.758H77.9v1.421H76.383a1.746,1.746,0,0,0-1.232.379,2.226,2.226,0,0,0-.473,1.515,2.062,2.062,0,0,0,.473,1.61,1.51,1.51,0,0,0,1.137.379h.663l2.178-5.21H81.5l2.653,6.346V184.62h2.368l2.746,4.641V184.62h1.611v6.536h0Z" transform="translate(-36.748 -183.198)" fill="#fff"/>
        <path id="Path_187" data-name="Path 187" d="M247.7,204.7a.508.508,0,0,0,.074-.1,1.024,1.024,0,0,0,.131-.714.525.525,0,0,0-.014-.086c0-.008,0-.014,0-.022h0a.531.531,0,0,0-.287-.322,1.854,1.854,0,0,0-.758-.094h-1.895v1.516h1.895a1.845,1.845,0,0,0,.758-.095.359.359,0,0,0,.078-.056h0Z" transform="translate(-216.583 -200.617)" fill="#fff"/>
        <path id="Path_188" data-name="Path 188" d="M180.2,270.9a3.629,3.629,0,0,0-.473-1.8v-4.262h0v-.285h-4.561a2.7,2.7,0,0,0-1.308.568v-.568H169.5a3.009,3.009,0,0,0-1.895.568v-.568h-7.767v.568a3.664,3.664,0,0,0-2.084-.568H152.64v.568a3.6,3.6,0,0,0-2.179-.568h-5.683l-1.326,1.421-1.232-1.421H133.7v9.568h8.336l1.37-1.37,1.187,1.37h5.305v-2.179h.474a5.754,5.754,0,0,0,2.178-.285v2.558h4.263v-2.463H157c.285,0,.285,0,.285.284v2.179h12.882a3.713,3.713,0,0,0,2.179-.569v.569h4.073a4.254,4.254,0,0,0,2.274-.474,3.181,3.181,0,0,0,1.5-2.554c0-.033.009-.065.012-.1l-.006-.005C180.2,271.022,180.2,270.961,180.2,270.9Zm-29.838-.568h-1.895v2.463h-3.113l-1.812-2.084-.006.007-.089-.1-2.084,2.179h-6.062v-6.631h6.157l1.682,1.842.354.386.048-.05,1.99-2.178h5.02a2.458,2.458,0,0,1,2.479,1.232,2.677,2.677,0,0,1,.079.662C153.113,269.952,151.787,270.331,150.367,270.331Zm9.472-.095a2.15,2.15,0,0,1,.284,1.232v1.326h-1.61v-.852a2.113,2.113,0,0,0-.285-1.327c-.189-.284-.568-.284-1.136-.284h-1.7v2.463h-1.61v-6.725h3.6a3.821,3.821,0,0,1,1.895.284,1.677,1.677,0,0,1,.852,1.516,1.886,1.886,0,0,1-1.137,1.8A1.614,1.614,0,0,1,159.839,270.236Zm6.536-2.748h-3.695v1.232h3.6v1.326h-3.6v1.326h3.695v1.421h-5.3v-6.725h5.3Zm3.978,5.305h-3.031v-1.421h3.031a.8.8,0,0,0,.663-.19.688.688,0,0,0,0-.947.8.8,0,0,0-.569-.19c-1.516-.095-3.315,0-3.315-2.084,0-.947.568-1.99,2.274-1.99h3.126v1.61H169.6a1.406,1.406,0,0,0-.663.095c-.189.095-.189.285-.189.474,0,.284.189.379.378.473a1.2,1.2,0,0,0,.568.095h.853a2.411,2.411,0,0,1,1.8.568,1.961,1.961,0,0,1,.474,1.421C172.816,272.13,171.964,272.794,170.354,272.794Zm8.146-.664a2.759,2.759,0,0,1-1.989.664H173.48v-1.421h3.03a.8.8,0,0,0,.663-.19.686.686,0,0,0,0-.947.8.8,0,0,0-.568-.19c-1.515-.095-3.315,0-3.315-2.084a1.936,1.936,0,0,1,1.785-1.955,3.528,3.528,0,0,1,.488-.034h3.126v1.61h-2.937a1.4,1.4,0,0,0-.663.095.722.722,0,0,0-.19.474c0,.284.095.379.379.473a1.2,1.2,0,0,0,.568.095h.852a2.96,2.96,0,0,1,1.014.152,2.04,2.04,0,0,1,1.325,1.5,2.129,2.129,0,0,1,.029.34A1.926,1.926,0,0,1,178.5,272.13Z" transform="translate(-120.488 -253.469)" fill="#fff"/>
      </g>
    </g>
    <g id="master-card" transform="translate(576.709 1491)">
      <path id="Path_189" data-name="Path 189" d="M69.749,123.43a4.123,4.123,0,0,1-4.123,4.123H4.123A4.123,4.123,0,0,1,0,123.43V83.574a4.123,4.123,0,0,1,4.123-4.123h61.5a4.123,4.123,0,0,1,4.123,4.123V123.43Z" transform="translate(0 -79.451)" fill="#e7e8e3"/>
      <rect id="Rectangle_54" data-name="Rectangle 54" width="69.749" height="9.81" transform="translate(0 9.356)" fill="#34495e"/>
      <rect id="Rectangle_55" data-name="Rectangle 55" width="69.749" height="6.07" transform="translate(0 19.169)" fill="#fff"/>
      <path id="Path_190" data-name="Path 190" d="M2.931,123.43V83.574a4.123,4.123,0,0,1,4.123-4.123H4.123A4.123,4.123,0,0,0,0,83.574V123.43a4.123,4.123,0,0,0,4.123,4.123H7.055A4.124,4.124,0,0,1,2.931,123.43Z" transform="translate(0 -79.451)" fill="#202121" opacity="0.15"/>
      <path id="Path_191" data-name="Path 191" d="M322.924,306.849a6.507,6.507,0,0,1,2.417-5.067,6.52,6.52,0,1,0,0,10.133A6.507,6.507,0,0,1,322.924,306.849Z" transform="translate(-271.844 -270.239)" fill="#ea001b"/>
      <path id="Path_192" data-name="Path 192" d="M396.8,300.329a6.492,6.492,0,0,0-4.1,1.453,6.52,6.52,0,0,1,0,10.133,6.52,6.52,0,1,0,4.1-11.587Z" transform="translate(-339.201 -270.239)" fill="#f79f1a"/>
      <path id="Path_193" data-name="Path 193" d="M379.79,316.065A6.507,6.507,0,0,0,377.373,311a6.519,6.519,0,0,0,0,10.133A6.506,6.506,0,0,0,379.79,316.065Z" transform="translate(-323.876 -279.455)" fill="#ff5f01"/>
      <g id="Group_100" data-name="Group 100" transform="translate(6.415 30.866)">
        <path id="Path_194" data-name="Path 194" d="M62.479,308.3H48.226a1.137,1.137,0,1,1,0-2.274H62.479a1.137,1.137,0,1,1,0,2.274Z" transform="translate(-47.089 -306.027)" fill="#fff"/>
        <path id="Path_195" data-name="Path 195" d="M62.479,343H48.226a1.137,1.137,0,1,1,0-2.274H62.479a1.137,1.137,0,1,1,0,2.274Z" transform="translate(-47.089 -335.999)" fill="#fff"/>
        <path id="Path_196" data-name="Path 196" d="M62.479,377.7H48.226a1.137,1.137,0,1,1,0-2.274H62.479a1.137,1.137,0,1,1,0,2.274Z" transform="translate(-47.089 -365.971)" fill="#fff"/>
      </g>
    </g>
    <g id="discover" transform="translate(752 1411.549)">
      <path id="Path_197" data-name="Path 197" d="M69.749,123.43a4.123,4.123,0,0,1-4.123,4.123H4.123A4.123,4.123,0,0,1,0,123.43V83.574a4.123,4.123,0,0,1,4.123-4.123h61.5a4.123,4.123,0,0,1,4.123,4.123V123.43Z" fill="#34495e"/>
      <path id="Path_198" data-name="Path 198" d="M2.931,123.43V83.574a4.123,4.123,0,0,1,4.123-4.123H4.123A4.123,4.123,0,0,0,0,83.574V123.43a4.123,4.123,0,0,0,4.123,4.123H7.055A4.124,4.124,0,0,1,2.931,123.43Z" fill="#202121" opacity="0.15"/>
      <path id="Path_199" data-name="Path 199" d="M244.434,223.5a5.043,5.043,0,0,0-5.1-5.095h-.019a5.122,5.122,0,1,0,5.123,5.122C244.435,223.514,244.434,223.505,244.434,223.5Z" transform="translate(-202.287 -120.021)" fill="#f26e21"/>
      <g id="Group_101" data-name="Group 101" transform="translate(4.616 98.281)">
        <path id="Path_200" data-name="Path 200" d="M179.516,225.065a3.148,3.148,0,0,1-2.233,1.082,3.182,3.182,0,0,1-3.217-3.348,3.717,3.717,0,0,1,.964-2.483h0a3.009,3.009,0,0,1,2.09-.866,3.1,3.1,0,0,1,2.364,1.084v-2.266a4.949,4.949,0,0,0-2.364-.591,5.706,5.706,0,0,0-3.339,1.39h0A5.364,5.364,0,0,0,172,222.9a5.005,5.005,0,0,0,5.123,5.023h.1a5.572,5.572,0,0,0,2.365-.591l-.066-2.266c-.033.033.033.064,0,.1Z" transform="translate(-153.181 -217.677)" fill="#e7e8e3"/>
        <path id="Path_201" data-name="Path 201" d="M313.363,221.583h0l-2.231,5.485-2.561-6.5H306.5l4.039,9.949h1.083l4.236-9.949h-2.068Z" transform="translate(-269.364 -220.172)" fill="#e7e8e3"/>
        <path id="Path_202" data-name="Path 202" d="M380.983,224.9v5.32H386.4v-1.577h-3.448v-2.659h3.35v-1.675h-3.35v-2.068H386.4v-1.675h-5.418Z" transform="translate(-333.698 -220.172)" fill="#e7e8e3"/>
        <path id="Path_203" data-name="Path 203" d="M36.643,220.566H33.884v9.654h2.759a5.343,5.343,0,0,0,3.447-1.084,4.871,4.871,0,0,0,1.773-3.743C41.863,222.536,39.794,220.566,36.643,220.566Zm2.265,7.29a3.788,3.788,0,0,1-2.561.788h-.591v-6.4h.492a3.345,3.345,0,0,1,2.562.788,3.147,3.147,0,0,1,1.084,2.365A2.945,2.945,0,0,1,38.908,227.856Z" transform="translate(-33.884 -220.172)" fill="#e7e8e3"/>
        <rect id="Rectangle_56" data-name="Rectangle 56" width="1.872" height="9.654" transform="translate(8.867 0.393)" fill="#e7e8e3"/>
        <path id="Path_204" data-name="Path 204" d="M122.429,223.688c-1.182-.394-1.478-.69-1.478-1.182a1.247,1.247,0,0,1,1.379-1.084,1.906,1.906,0,0,1,1.576.788l.985-1.281a4.29,4.29,0,0,0-2.857-1.083,2.89,2.89,0,0,0-3.054,2.758c0,1.379.592,1.97,2.365,2.66a3.83,3.83,0,0,1,1.281.591,1.084,1.084,0,0,1,.591.985,1.373,1.373,0,0,1-1.478,1.379,2.3,2.3,0,0,1-2.069-1.281l-1.182,1.182a3.864,3.864,0,0,0,3.35,1.871,3.106,3.106,0,0,0,3.348-3.152C125.186,225.166,124.6,224.477,122.429,223.688Z" transform="translate(-106.963 -219.551)" fill="#e7e8e3"/>
        <path id="Path_205" data-name="Path 205" d="M434.193,226.181a2.6,2.6,0,0,0,2.265-2.758c0-1.773-1.281-2.857-3.448-2.857h-2.857v9.654h1.872v-3.842h.3l2.659,3.842h2.266ZM432.617,225h-.591v-2.955h.591c1.182,0,1.872.492,1.872,1.478S433.8,225,432.617,225Z" transform="translate(-376.171 -220.172)" fill="#e7e8e3"/>
      </g>
    </g>
    <g id="bitcoin" transform="translate(840 1411.549)">
      <path id="Path_206" data-name="Path 206" d="M69.749,123.43a4.123,4.123,0,0,1-4.123,4.123H4.123A4.123,4.123,0,0,1,0,123.43V83.574a4.123,4.123,0,0,1,4.123-4.123h61.5a4.123,4.123,0,0,1,4.123,4.123V123.43Z" fill="#44423e"/>
      <circle id="Ellipse_32" data-name="Ellipse 32" cx="16.68" cy="16.68" r="16.68" transform="translate(30.262 86.881)" fill="#e7e8e3"/>
      <path id="Path_207" data-name="Path 207" d="M2.931,123.43V83.574a4.123,4.123,0,0,1,4.123-4.123H4.123A4.123,4.123,0,0,0,0,83.574V123.43a4.123,4.123,0,0,0,4.123,4.123H7.055A4.124,4.124,0,0,1,2.931,123.43Z" fill="#202121" opacity="0.15"/>
      <path id="Path_208" data-name="Path 208" d="M288.062,195.333l.829-3.315c3.391.6,5.952.376,7.008-2.713.9-2.487,0-3.918-1.809-4.822a3.153,3.153,0,0,0,2.562-2.939c.376-2.411-1.507-3.692-4.144-4.52l.829-3.24-1.959-.527-.753,3.165c-.527-.151-1.055-.226-1.582-.377l.829-3.164-1.959-.527-.829,3.24c-.452-.076-.9-.226-1.281-.3l-2.712-.678-.527,2.109,1.431.377a1.035,1.035,0,0,1,.9,1.13l-.9,3.692a.277.277,0,0,1,.226.075c-.075,0-.151-.075-.226-.075l-1.281,5.2a.719.719,0,0,1-.9.452l-1.432-.377-.98,2.261,2.562.678c.527.151.98.226,1.431.377l-.829,3.316,1.959.527.829-3.24a11.967,11.967,0,0,1,1.582.377l-.828,3.24Zm.527-16.953c1.13.3,4.672.829,4.144,3.165-.527,2.26-3.993,1.13-5.124.829ZM286.028,188.7l1.055-4.37c1.356.376,5.651.979,5.048,3.542C291.528,190.36,287.384,189,286.028,188.7Z" transform="translate(-241.335 -80.246)" fill="#f7931a"/>
      <g id="Group_102" data-name="Group 102" transform="translate(6.221 87.261)">
        <path id="Path_209" data-name="Path 209" d="M62.729,139.055H46.8a1.137,1.137,0,0,1,0-2.274H62.729a1.137,1.137,0,1,1,0,2.274Z" transform="translate(-45.663 -136.781)" fill="#e7e8e3"/>
        <path id="Path_210" data-name="Path 210" d="M62.729,175.786H46.8a1.137,1.137,0,1,1,0-2.274H62.729a1.137,1.137,0,1,1,0,2.274Z" transform="translate(-45.663 -168.508)" fill="#e7e8e3"/>
      </g>
    </g>
    <g id="webmoney" transform="translate(928 1481.061)">
      <g id="Group_104" data-name="Group 104" transform="translate(0 9.939)">
        <g id="Group_103" data-name="Group 103">
          <path id="Path_211" data-name="Path 211" d="M67.953,9.939H1.8A1.855,1.855,0,0,0,0,11.85V56.13a1.855,1.855,0,0,0,1.8,1.911H67.953a1.855,1.855,0,0,0,1.8-1.911V11.85A1.855,1.855,0,0,0,67.953,9.939Zm-3.51,21.44-.962.924-.868-1.026.963-.924Zm-4.955-.895-1.3-1.54,1.447-1.386,1.3,1.54Zm1.477.17,1.3,1.539-1.447,1.386-1.3-1.539Zm-2.654-.51-1.929,1.848-1.735-2.053,1.929-1.848Zm-.357,1.45,1.736,2.053-1.929,1.846L56.026,33.44Zm1.372,3.548,1.736,2.053-1.929,1.85L57.4,36.992Zm1.429.151L62.2,33.905l1.3,1.54L62.06,36.832Zm2.458-6.965-.964.924-.868-1.026.964-.924Zm-53.1,9.086h-1L7.855,32.5H7.79L6.569,37.414h-1l-1.5-6.981H5.106l1.036,5.209h.065l1.2-5.209h.824l1.287,5.209h.065l.945-5.209h1.083Zm5.74-2.272H12.838c0,1.18.453,1.7,1.407,1.7a2.715,2.715,0,0,0,1.471-.513v.748a3.123,3.123,0,0,1-1.638.453c-1.555,0-2.193-1.024-2.193-2.581,0-1.5.713-2.578,2.1-2.578,1.157,0,1.87.8,1.87,2.4ZM18.5,37.534a4.1,4.1,0,0,1-1.805-.482V30.178l.962-.246V32.74a2.666,2.666,0,0,1,1.251-.364c1.147,0,1.767.848,1.767,2.423C20.675,36.64,19.843,37.534,18.5,37.534Zm9.562-.12h-1V32.352h-.083L25.09,37.414H24.5L22.61,32.47h-.083v4.944H21.7V30.433h1.119l2.073,5.5h.047l1.981-5.5h1.147v6.981Zm3.127.12c-1.267,0-2.111-.9-2.111-2.581,0-1.724.889-2.578,2.111-2.578s2.111.857,2.111,2.578C33.3,36.64,32.458,37.534,31.189,37.534Zm6.876-.12H37.1V34.075c0-.777-.359-.915-.834-.915a2.436,2.436,0,0,0-1.129.355v3.9h-.962V33.1a4.535,4.535,0,0,1,2.36-.728c1.11,0,1.526.463,1.526,1.477v3.564ZM42.9,35.142H39.88c0,1.18.453,1.7,1.409,1.7a2.708,2.708,0,0,0,1.47-.513v.748a3.124,3.124,0,0,1-1.639.453c-1.555,0-2.191-1.024-2.191-2.581,0-1.5.713-2.578,2.1-2.578,1.158,0,1.871.8,1.871,2.4Zm2.914,2.323c-.463,1.358-1.027,2.067-2.09,2.067v-.807c.63,0,1.016-.531,1.24-1.26L43.186,32.54H44.2l1.184,3.624h.056L46.5,32.54h.99ZM61.5,41.5a7.676,7.676,0,0,1-4,1.125,8.4,8.4,0,0,1-8.111-8.63,8.4,8.4,0,0,1,8.111-8.631,7.668,7.668,0,0,1,3.554.875c.169.085.337.18.5.283l-.746.711L59.7,25.994l-1.893,1.8-1.123-1.306-3.528,3.383,2.261,2.653-.889.831,2.228,2.656-.884.831,3.184,3.77,1.887-1.85,1.633,1.984A8.926,8.926,0,0,1,61.5,41.5Zm1.829-1.556-1.3-1.538,1.447-1.388,1.3,1.539Zm1.381-4.589-.868-1.026.964-.924.868,1.026Z" transform="translate(0 -9.939)" fill="#0074b6"/>
        </g>
      </g>
      <g id="Group_106" data-name="Group 106" transform="translate(29.986 33.064)">
        <g id="Group_105" data-name="Group 105">
          <path id="Path_212" data-name="Path 212" d="M25.546,27.536c-.649,0-1.212.56-1.212,1.89,0,1.35.513,1.891,1.212,1.891s1.212-.541,1.212-1.891C26.757,28.095,26.215,27.536,25.546,27.536Z" transform="translate(-24.334 -27.536)" fill="#0074b6"/>
        </g>
      </g>
      <g id="Group_108" data-name="Group 108" transform="translate(17.615 33.143)">
        <g id="Group_107" data-name="Group 107">
          <path id="Path_213" data-name="Path 213" d="M15.364,27.6a2.059,2.059,0,0,0-1.072.325v3.221a2.278,2.278,0,0,0,.905.158c.729,0,1.281-.453,1.281-2.049C16.479,28,16.024,27.6,15.364,27.6Z" transform="translate(-14.292 -27.596)" fill="#0074b6"/>
        </g>
      </g>
      <g id="Group_110" data-name="Group 110" transform="translate(39.815 33.034)">
        <g id="Group_109" data-name="Group 109">
          <path id="Path_214" data-name="Path 214" d="M33.481,27.513c-.6,0-1.064.463-1.175,1.447h2.258C34.515,27.927,34.012,27.513,33.481,27.513Z" transform="translate(-32.306 -27.513)" fill="#0074b6"/>
        </g>
      </g>
      <g id="Group_112" data-name="Group 112" transform="translate(12.83 33.034)">
        <g id="Group_111" data-name="Group 111">
          <path id="Path_215" data-name="Path 215" d="M11.582,27.513c-.6,0-1.064.463-1.172,1.447h2.255C12.616,27.927,12.114,27.513,11.582,27.513Z" transform="translate(-10.41 -27.513)" fill="#0074b6"/>
        </g>
      </g>
    </g>
    <g id="alipay" transform="translate(1016 1411.549)">
      <path id="Path_206-2" data-name="Path 206" d="M69.749,123.43a4.123,4.123,0,0,1-4.123,4.123H4.123A4.123,4.123,0,0,1,0,123.43V83.574a4.123,4.123,0,0,1,4.123-4.123h61.5a4.123,4.123,0,0,1,4.123,4.123V123.43Z" fill="#fff" stroke="#c5c5c5" stroke-width="1"/>
      <g id="Alipay_logo" transform="translate(4 94.451)">
        <path id="Path_216" data-name="Path 216" d="M3.391,0A3.374,3.374,0,0,0,0,3.36V17.612a3.375,3.375,0,0,0,3.391,3.36H17.778a3.375,3.375,0,0,0,3.39-3.36v-.146c-.063-.026-5.5-2.273-8.266-3.59a8.979,8.979,0,0,1-6.768,3.653c-4.223,0-5.657-3.662-3.658-6.072a4.247,4.247,0,0,1,2.329-1.308c1.8-.438,4.667.274,7.353,1.152a14.5,14.5,0,0,0,1.192-2.887H5.074V7.583H9.342V6.094H4.172V5.262h5.17V3.138a.353.353,0,0,1,.366-.358h2.087V5.262h5.111v.831H11.795V7.583h4.172A16.814,16.814,0,0,1,14.2,12c1.266.454,2.4.884,3.249,1.165a24.5,24.5,0,0,0,3.719,1.063V3.36A3.374,3.374,0,0,0,17.778,0H3.391ZM5.712,11.362q-.272,0-.547.03a4.176,4.176,0,0,0-2.065.76c-1.627,1.406-.653,3.976,2.64,3.976,1.914,0,3.827-1.212,5.329-3.154a12.211,12.211,0,0,0-5.358-1.611Z" fill="#00a1e9"/>
        <path id="Path_217" data-name="Path 217" d="M385.087,32.778l-.945,2.039-.959-2.039h-.937L383.7,35.6v1.966h.859V35.6l.005-.011,1.453-2.808Zm-6.918,1.233L378.835,36h-1.357Zm.871,2.588.321.964h.9l-1.773-4.785H377.8l-1.768,4.785h.9l.335-.964Zm-6.722-1.534h-.957V33.429h.957a.79.79,0,0,1,.768.822.778.778,0,0,1-.768.815m.049-2.288h-1.872v4.785h.866v-1.84h1.005a1.477,1.477,0,1,0,0-2.945m-6.25,4.785h.867V32.778h-.867Zm-6.093-4.785v4.785h2.916v-.652h-2.05V32.778Zm-4.934,1.233L355.754,36H354.4Zm.871,2.588.321.964h.9l-1.773-4.785h-.688l-1.768,4.785h.9l.335-.964Zm6.1-13.175h-3.716V22.1h4.309v-.824h-4.309V19.6h-1.921a.386.386,0,0,0-.381.391v1.285h-4.278V22.1h4.278v1.323h-3.611v.823h7.193a7.064,7.064,0,0,1-2.372,3.208,8.929,8.929,0,0,1-2.358-2.388h-1.93a10.7,10.7,0,0,0,3.084,3.275,16.819,16.819,0,0,1-4.36,1.938v.986a19.543,19.543,0,0,0,5.582-2.138,20.053,20.053,0,0,0,5.508,2.138v-.934a23,23,0,0,1-4.264-2.019,8.961,8.961,0,0,0,3.545-4.889m12.07-3.658h-1.934v2.008h-4.767v.809h4.767V29.8a.334.334,0,0,1-.312.3H370.9v.836H373.4a.76.76,0,0,0,.723-.749v-7.61h.785v-.809h-.785Zm-4.079,4.179a.432.432,0,0,0-.383-.244h-1.612l1.256,3.928h1.906Zm-4.76-4.274-2.218,5.214h1.7v6.2h1.861V22.859h-.675l1.4-3.188ZM386.87,30.8l-.68-2.282a.354.354,0,0,0-.336-.251h-1.8l.523,1.753h-2.119v-3.4h4.161v-.808h-4.161v-1.6h4.161v-.808H376.234v.808h4.16v1.6h-4.16v.808h4.16v3.4h-4.16v.808H386.87l-.009-.028ZM378.4,21.487h6.059v1.192h2.165V21.267a.027.027,0,0,1,0-.008.575.575,0,0,0-.56-.58h-3.5V19.567h-2.265v1.112h-4.059v2H378.4Z" transform="translate(-327.102 -18.2)" fill="#3f3b3a"/>
      </g>
    </g>
    <g id="alipay-2" data-name="alipay" transform="translate(1104 1411.549)">
      <path id="Path_206-3" data-name="Path 206" d="M69.749,123.43a4.123,4.123,0,0,1-4.123,4.123H4.123A4.123,4.123,0,0,1,0,123.43V83.574a4.123,4.123,0,0,1,4.123-4.123h61.5a4.123,4.123,0,0,1,4.123,4.123V123.43Z" fill="#fff" stroke="#c5c5c5" stroke-width="1"/>
      <g id="UnionPay_logo" transform="translate(6 85.45)">
        <path id="Path_218" data-name="Path 218" d="M11.394,0H25.915A2.83,2.83,0,0,1,28.73,3.687L21.969,32.712a4.935,4.935,0,0,1-4.535,3.68H2.914A2.829,2.829,0,0,1,.1,32.712L6.863,3.687A4.922,4.922,0,0,1,11.394,0" transform="translate(0 0)" fill="#e21836"/>
        <path id="Path_219" data-name="Path 219" d="M69.868,0h16.7c2.027,0,1.113,1.652.636,3.686l-6.76,29.026c-.474,2.027-.326,3.68-2.357,3.68h-16.7a2.822,2.822,0,0,1-2.811-3.68L65.336,3.687A4.932,4.932,0,0,1,69.868,0" transform="translate(-45.162 0)" fill="#00447c"/>
        <path id="Path_220" data-name="Path 220" d="M140.305,0h14.521a2.826,2.826,0,0,1,2.814,3.686l-6.76,29.026a4.936,4.936,0,0,1-4.537,3.68H131.829a2.825,2.825,0,0,1-2.815-3.68l6.76-29.026A4.92,4.92,0,0,1,140.305,0" transform="translate(-99.562 0)" fill="#007b84"/>
        <path id="Path_221" data-name="Path 221" d="M37.359,40.682a15.6,15.6,0,0,1-2.075-.033c-.054.257-1.062,4.906-1.065,4.91a3.4,3.4,0,0,1-.911,2.044,1.623,1.623,0,0,1-1.072.373.991.991,0,0,1-1.113-.952l-.012-.214s.2-1.26.2-1.267,1.058-4.236,1.247-4.8a.409.409,0,0,0,.015-.064,15.544,15.544,0,0,1-2.449-.033c-.014.046-.065.308-.065.308l-1.08,4.774-.093.4-.179,1.324a1.949,1.949,0,0,0,.231.985c.492.86,1.9.989,2.689.989a5.219,5.219,0,0,0,2.631-.614,3.9,3.9,0,0,0,1.683-2.628l.122-.474s1.089-4.4,1.275-4.972A.2.2,0,0,1,37.359,40.682Zm3.707,3.549a2.877,2.877,0,0,0-1.174.275c-.156.08-.3.173-.46.265l.141-.509-.077-.086c-.914.185-1.119.21-1.963.329l-.071.047a24.982,24.982,0,0,1-.549,3.022c-.138.589-.282,1.184-.426,1.771l.039.075c.865-.046,1.128-.046,1.88-.033l.061-.066c.1-.49.108-.6.32-1.6.1-.47.307-1.5.409-1.871a1.4,1.4,0,0,1,.55-.173c.422,0,.37.368.354.514-.018.246-.172,1.049-.329,1.739l-.105.445c-.073.329-.154.648-.227.974l.032.065c.853-.046,1.113-.046,1.842-.033l.086-.066c.132-.765.17-.969.4-2.082l.118-.511c.228-1,.343-1.508.17-1.922A.993.993,0,0,0,41.066,44.231Zm4.141,1.048c-.453.087-.743.145-1.03.183s-.563.087-1,.148l-.035.031-.032.025c-.046.326-.078.608-.138.94s-.13.733-.259,1.293a5.079,5.079,0,0,1-.207.729,6.3,6.3,0,0,0-.228.719l.026.039.022.036c.41-.019.677-.033.953-.036s.56,0,1,0l.039-.031.041-.035c.064-.38.073-.482.112-.668s.105-.474.268-1.21c.077-.345.163-.69.243-1.042s.17-.7.253-1.042l-.012-.042Zm.01-1.413a1.661,1.661,0,0,0-1.622.17c-.485.329-.54.8-.13,1.043a1.657,1.657,0,0,0,1.613-.173C45.562,44.57,45.623,44.107,45.216,43.866ZM47.708,49.5a3.1,3.1,0,0,0,2.331-.911,4.133,4.133,0,0,0,.8-1.714,2.181,2.181,0,0,0-.194-1.966,2.145,2.145,0,0,0-1.749-.643,3.211,3.211,0,0,0-2.2.76,3.6,3.6,0,0,0-.975,1.9c-.158.687-.339,1.925.8,2.385A3.332,3.332,0,0,0,47.708,49.5Zm-.065-2.526c.192-.85.419-1.564,1-1.564.454,0,.487.531.285,1.384a3.811,3.811,0,0,1-.426,1.193.7.7,0,0,1-.546.355c-.061,0-.423,0-.429-.538A3.676,3.676,0,0,1,47.643,46.972Zm5.28,2.417.065-.066c.092-.489.108-.6.312-1.6.1-.47.314-1.5.413-1.871a1.383,1.383,0,0,1,.553-.173c.419,0,.368.368.351.514a16.745,16.745,0,0,1-.329,1.739l-.1.445c-.076.329-.159.648-.232.975l.032.065c.856-.046,1.106-.046,1.839-.033l.089-.066c.128-.765.163-.969.4-2.082l.115-.512c.23-1,.346-1.508.176-1.922a1,1,0,0,0-1.026-.575,2.864,2.864,0,0,0-1.174.275c-.153.08-.307.173-.458.265l.131-.509-.071-.086c-.914.185-1.123.21-1.966.329l-.065.047a25.869,25.869,0,0,1-.549,3.022c-.138.589-.282,1.184-.426,1.771l.038.075C51.913,49.376,52.172,49.376,52.923,49.388Zm6.288.033c.054-.263.373-1.819.376-1.819s.272-1.142.289-1.184a.676.676,0,0,1,.171-.166h.126a5.851,5.851,0,0,0,3.584-.774,3.819,3.819,0,0,0,1.424-2.268,3.424,3.424,0,0,0,.1-.789,1.658,1.658,0,0,0-.285-1.008c-.537-.751-1.605-.765-2.839-.77l-.608.006c-1.579.019-2.212.014-2.472-.018-.022.115-.063.32-.063.32s-.566,2.621-.566,2.626l-1.417,5.836C58.407,49.4,58.973,49.4,59.211,49.421Zm1.048-4.656s.6-2.616.6-2.606l.02-.134.008-.1.24.025,1.269.109a1.034,1.034,0,0,1,.551,1.315,1.912,1.912,0,0,1-.992,1.308,3.132,3.132,0,0,1-1.393.217h-.326ZM64,47.02c-.159.677-.342,1.915.791,2.356a2.21,2.21,0,0,0,1.013.183,1.673,1.673,0,0,0,.967-.444l-.081.309.051.066c.814-.034,1.067-.034,1.949-.028l.08-.061c.129-.757.25-1.493.585-2.942.163-.694.326-1.381.493-2.073l-.026-.076c-.911.169-1.155.2-2.031.329l-.066.054c-.009.07-.018.138-.027.206a1.252,1.252,0,0,0-.638-.525,2.44,2.44,0,0,0-2.092.761A3.551,3.551,0,0,0,64,47.02Zm1.913.041c.2-.835.419-1.541,1-1.541.367,0,.56.339.521.916-.031.144-.065.3-.1.468-.058.248-.121.494-.182.74a1.8,1.8,0,0,1-.214.433,1,1,0,0,1-.709.343c-.058,0-.416,0-.428-.528A3.62,3.62,0,0,1,65.916,47.061ZM75.908,44.3l-.07-.08c-.9.183-1.065.212-1.893.323l-.061.061c0,.01-.005.025-.01.039l0-.014c-.617,1.422-.6,1.116-1.1,2.235,0-.051,0-.083-.006-.137L72.64,44.3l-.079-.08c-.944.183-.967.212-1.839.323l-.068.061a.664.664,0,0,0-.015.1l.006.012a12.22,12.22,0,0,1,.192,1.312c.051.431.119.865.17,1.292.086.713.134,1.064.239,2.153-.589.972-.728,1.34-1.3,2.193l0,.009-.4.631a.3.3,0,0,1-.145.132.6.6,0,0,1-.262.037h-.221L68.6,53.568l1.128.019a1.391,1.391,0,0,0,1.3-.729l.709-1.215h-.011l.075-.086C72.279,50.53,75.908,44.3,75.908,44.3ZM64,58.668h-.479L65.3,52.81h.588l.186-.6.018.671c-.022.415.3.783,1.162.722h.992l.341-1.128h-.373c-.214,0-.314-.054-.3-.17l-.018-.683H66.053v0a25.737,25.737,0,0,0-2.725.153,3.208,3.208,0,0,0-.892.441l.18-.6H60.9l-.358,1.2-1.795,5.948H58.4l-.342,1.12h3.42l-.115.373h1.685l.112-.373h.473ZM62.6,54a7.661,7.661,0,0,0-.787.307l.455-1.5h1.364L63.3,53.9A4.436,4.436,0,0,0,62.6,54Zm.026,2.139s-.428.054-.711.117a6.943,6.943,0,0,0-.8.35l.47-1.558h1.371Zm-.765,2.543H60.492l.4-1.315h1.364Zm3.3-3.634H67.13l-.283.918h-2l-.3,1H66.3l-1.325,1.865a.544.544,0,0,1-.268.224.785.785,0,0,1-.355.1h-.485l-.333,1.1H64.8a1.543,1.543,0,0,0,1.337-.694l.908-1.243.2,1.262a.593.593,0,0,0,.326.428,1.177,1.177,0,0,0,.444.189c.2.008.342.015.438.015h.624l.375-1.23H69.2a1.03,1.03,0,0,1-.426-.068.665.665,0,0,1-.064-.263l-.2-1.265H67.7l.355-.423h2l.307-1H68.513l.288-.918h1.842l.342-1.132h-5.49ZM48.494,58.938l.46-1.532h1.893l.346-1.139H49.3l.289-.943h1.851l.343-1.1H47.15l-.336,1.1h1.052l-.281.943H46.531l-.35,1.159h1.052l-.614,2.027a.484.484,0,0,0,.116.5.507.507,0,0,0,.339.247,2.04,2.04,0,0,0,.485.066h2.134L50.073,59l-.946.13C48.945,59.129,48.439,59.107,48.494,58.938Zm.217-7.333-.479.867a1.007,1.007,0,0,1-.278.361.921.921,0,0,1-.429.065h-.25l-.334,1.109h.831a1.884,1.884,0,0,0,.853-.22c.158-.084.2-.036.321-.154l.281-.243h2.6l.344-1.155h-1.9l.332-.63Zm3.831,7.355c-.044-.064-.012-.176.055-.41l.709-2.348H55.83c.368-.005.633-.01.806-.022a1.651,1.651,0,0,0,.607-.2,1.133,1.133,0,0,0,.441-.407,3.461,3.461,0,0,0,.436-.987l.892-2.971-2.619.015a8.3,8.3,0,0,0-1.161.25,4.749,4.749,0,0,0-.87.556l.236-.814H52.981l-2.265,7.51a4.647,4.647,0,0,0-.147.63c0,.137.173.273.288.375a1.032,1.032,0,0,0,.528.1c.2.015.49.025.886.025h1.243l.382-1.288-1.113.105A.293.293,0,0,1,52.542,58.96Zm1.222-4.343h2.65l-.168.528a1.9,1.9,0,0,0-.35.006H53.6Zm.531-1.771h2.673l-.192.636s-1.26-.012-1.461.025a2.982,2.982,0,0,0-1.406.628Zm2.01,4.068a.282.282,0,0,1-.1.163.526.526,0,0,1-.271.047h-.377l.022-.643H54l-.064,3.144c0,.227.019.358.185.463a3.155,3.155,0,0,0,1.366.148h.984l.355-1.177-.857.047-.285.017a.325.325,0,0,1-.117-.073c-.036-.036-.1-.014-.087-.241L55.491,58l.9-.037a1.165,1.165,0,0,0,.87-.308.965.965,0,0,0,.288-.534l.151-.714H56.463Z" transform="translate(-22.173 -31.38)" fill="#fefefe"/>
      </g>
    </g>
    <text id="and_more_" data-name="and more!" transform="translate(1202 1516)" fill="#6d6d6d" font-size="15" font-family="Poppins-SemiBold, Poppins" font-weight="600" letter-spacing="0.03em"><tspan x="0" y="0">and more!</tspan></text>
  </g>
</svg>
