<svg id="undraw_credit_card_payment_12va_1_" data-name="undraw_credit_card_payment_12va (1)" xmlns="http://www.w3.org/2000/svg" xmlns:xlink="http://www.w3.org/1999/xlink" width="446.371" height="342" viewBox="0 0 446.371 342">
  <defs>
    <linearGradient id="linear-gradient" x1="0.5" y1="1" x2="0.5" gradientUnits="objectBoundingBox">
      <stop offset="0" stop-color="gray" stop-opacity="0.251"/>
      <stop offset="0.54" stop-color="gray" stop-opacity="0.122"/>
      <stop offset="1" stop-color="gray" stop-opacity="0.102"/>
    </linearGradient>
    <linearGradient id="linear-gradient-2" x1="0.5" x2="0.5" y2="0" xlink:href="#linear-gradient"/>
  </defs>
  <path id="Path_149" data-name="Path 149" d="M96.757,222.86c-6.177,2.018-11.942,6.9-13.5,13.675-1.767,7.783,2.3,15.648,2.882,23.628,1.9,26.193-32.584,44.674-27.668,70.414,1.956,10.216,9.854,17.748,17.641,23.945,12.465,9.928,26.292,18.695,41.59,21.174,23.241,3.76,47.528-7.3,70.122-.309,18.221,5.637,32.164,22.166,50.262,28.265,13.778,4.645,28.615,2.813,42.94.935,7.7-1.009,15.8-2.178,22.03-7.181,11.6-9.314,12.3-27.7,20.058-40.886,11.97-20.346,38.217-24.32,60.227-20.367s43.369,13.7,65.667,12.876c4.764-.169,9.652-.873,13.8-3.4,5.053-3.072,8.47-8.479,11.489-13.832a237.242,237.242,0,0,0,30.035-111.21c.128-6.749-.091-13.79-3.027-19.765-3.706-7.54-11.118-12.04-18.53-15.079-17.74-7.256-37.336-8.429-54.726-16.665-16.772-7.935-30.361-21.857-44.962-33.766a231.336,231.336,0,0,0-98.63-47.462c-8.388-1.75-17.093-3-25.427-.98-9.6,2.331-17.879,8.8-25.32,15.759-19.8,18.53-35.668,41.376-53.91,61.676a315.055,315.055,0,0,1-40.968,38.127c-6.766,5.258-13.931,11.5-21.454,15.388C110.5,221.378,104.033,220.484,96.757,222.86Z" transform="translate(-57.993 -64.786)" fill="#181f4d" opacity="0.1"/>
  <path id="Path_150" data-name="Path 150" d="M557.536,206.136c-9.059-1.894-26.21-5.448-45.621-9.385-28.738-5.827-36.237,16.228-36.237,16.228,0,11.233-37.472,57.83-37.472,57.83l-11.176-25.036a11.786,11.786,0,0,0,5.139-.346c6.4-1.911,9.561-9.129,10.587-15.722a51.662,51.662,0,0,0-4.023-29.236c-1.907-4.175-4.377-8.1-5.909-12.428-6.461-18.143,4.731-39.144-2.038-57.217-2.8-7.457-8.372-13.506-12.226-20.474-8.647-15.668-8.277-35.269-17.707-50.488a45.7,45.7,0,0,0-42.973-20.84c-9.846,1.112-16.883,4.628-26.057.412-7.746-3.55-17.044-7.519-25.02-1.927-6.8,4.768-7.96,14.161-11.674,21.586-6.523,13.041-22,21.553-23.817,36.018-.449,3.566,0,7.264-1.042,10.706-2.973,9.73-15.919,12.6-21.223,21.289-5.193,8.5.054,21.351,9.714,23.8,4.118,1.046,8.549.412,12.662,1.519,3.858,1.029,7.6,4.637,6.934,8.4l-8.557,1.557-24.62,2.734-3.809.239v.185l-.206.025.2.165v1.351c-6.93,2.714-18.16,9.957-22.4,28.956a28.759,28.759,0,0,1-5.736,11.839c-6.313,7.783-16.788,22.981-16.2,37.571.824,20.8.824,29.125,28.322,23.3,6.947-1.47,14.5-4.484,21.919-8.166.432,8.672,1.557,17.175,3.9,23.558,7.5,20.387-8.33,92.366-8.33,92.366H395.706s-12.913-42.438-25.407-64.073c-8.849-15.326-5.58-24.6-2.919-28.7a38.526,38.526,0,0,0,5.1-11.373c.453-1.775.894-3.788,1.272-6.02a32.123,32.123,0,0,0,9.212,5.6,16.625,16.625,0,0,0,9.907.572c6.514,7.964,13.791,16.7,21.577,25.773,29.99,34.948,38.32,13.313,38.32,13.313s30.406-57.83,34.59-75.306,13.329-16.644,13.329-16.644c25.069,6.337,47.289-2.862,57.612-8.4a2.747,2.747,0,0,0-.766-5.123Zm-309.3,10.455a39.558,39.558,0,0,0,5.353-7.824h.078a59.42,59.42,0,0,1-2.928,8.516c-2.335.449-3.743.684-3.743.684Z" transform="translate(-139.761 -34.721)" fill="url(#linear-gradient)"/>
  <path id="Path_151" data-name="Path 151" d="M376.542,46.53c-6.724,4.719-7.869,14-11.53,21.363-6.448,12.905-21.746,21.334-23.546,35.648-.445,3.529,0,7.19-1.029,10.591-2.936,9.632-15.738,12.477-21,21.071-5.135,8.409.054,21.128,9.6,23.554,4.081,1.038,8.45.412,12.518,1.5s8.009,5.077,6.663,9.059c-1,2.965-4.53,4.653-5.172,7.717-.56,2.635,1.235,5.147,2.973,7.2a29.857,29.857,0,0,0,7.515,6.848c8.12,4.678,18.25,1.869,27.614,1.561a49.9,49.9,0,0,1,31.489,10.01,24.143,24.143,0,0,1,6.634,7.062c5.234,9.216.284,20.783,1.4,31.32,1.26,11.975,10.2,21.586,19.234,29.545,3.607,3.179,7.412,6.313,11.942,7.956s9.944,1.552,13.753-1.379c4-3.08,5.394-8.536,5.419-13.589s-1.038-10.08-.782-15.125c.123-2.471,1.025-5.407,3.434-5.893a5.612,5.612,0,0,1,3.529.8c7.684,3.862,15.055,11.427,23.29,8.973,6.329-1.89,9.471-9.034,10.467-15.561a51.18,51.18,0,0,0-3.978-28.923c-1.886-4.118-4.328-8.017-5.843-12.3-6.366-17.991,4.69-38.781-2-56.657-2.763-7.379-8.277-13.366-12.086-20.264-8.565-15.508-8.182-34.907-17.509-49.97A45.159,45.159,0,0,0,427.059,48.02c-9.734,1.1-16.69,4.583-25.761.412C393.639,44.928,384.448,40.979,376.542,46.53Z" transform="translate(-210.591 -40.04)" fill="#40243e"/>
  <path id="Path_152" data-name="Path 152" d="M604.206,366.477s26.766-8.236,37.472,39.531l27.178,60.944s37.06-46.119,37.06-57.238c0,0,7.412-21.824,35.825-16.059,19.193,3.9,36.13,7.412,45.1,9.286a2.718,2.718,0,0,1,.737,5.053c-10.2,5.477-32.172,14.581-56.958,8.31,0,0-9.059-.824-13.177,16.471s-34.178,74.532-34.178,74.532-8.236,21.413-37.884-13.177S593.5,429.891,593.5,429.891Z" transform="translate(-372.989 -229.547)" fill="#ffbcc8"/>
  <path id="Path_153" data-name="Path 153" d="M458.916,301.252l-3.55,11.69-3.508,11.563-6.943,22.866-32.942,6.177L401.238,346.7l-13.148-8.388-11.336-7.824-16.665-11.53L346.5,290.546s3.747-.663,15.429-2.788l16.278-2.977c11.242-2.059,15.491-10.426,16.788-18.942,1.552-10.2-1.141-20.589-1.141-20.589h41.59s4.653,7,3.924,19.09A48.4,48.4,0,0,1,437.5,274.9c-3.657,12.658,4.6,16.883,10.2,18.254a23.206,23.206,0,0,0,4.624.688Z" transform="translate(-227.698 -158.558)" fill="#ffbcc8"/>
  <path id="Path_154" data-name="Path 154" d="M506.984,264.352a39.144,39.144,0,0,1-44.373,1.507c1.552-10.2-1.141-20.589-1.141-20.589h41.59S507.725,252.241,506.984,264.352Z" transform="translate(-295.326 -158.57)" opacity="0.1"/>
  <circle id="Ellipse_19" data-name="Ellipse 19" cx="39.119" cy="39.119" r="39.119" transform="translate(149.273 33.984)" fill="#ffbcc8"/>
  <path id="Path_155" data-name="Path 155" d="M458.916,361.974l-3.55,11.69-3.508,11.563-6.943,22.866-32.942,6.177-10.735-6.848-13.148-8.388-11.336-7.824-16.665-11.53L346.5,351.268s3.747-.663,15.429-2.788c8.236,22.916,18.654,31.448,28.055,34.215a34.592,34.592,0,0,0,15.063.618,38.869,38.869,0,0,1,16.154.824c12.642,3.517,19.3-3.216,22.792-11.76,2.586-6.321,3.442-13.638,3.706-18.53a23.209,23.209,0,0,0,4.624.688Z" transform="translate(-227.698 -219.28)" opacity="0.1"/>
  <path id="Path_156" data-name="Path 156" d="M305.135,562.035s15.648-71.238,8.236-91.415c-2.121-5.765-3.232-13.309-3.731-21.116-1.235-19.465,1.26-40.651,1.26-40.651.354-.688.688-1.371,1.009-2.059q1.235-2.635,2.174-5.156c8.824-23.743-2.154-39.552-7.721-45.6a27.737,27.737,0,0,0-2.882-2.771l31.5-3.5c8.281,23.764,18.9,32.531,28.454,35.339a34.59,34.59,0,0,0,15.063.618,38.868,38.868,0,0,1,16.154.824c12.642,3.517,19.3-3.216,22.792-11.76,4.34-10.607,3.8-24,3.8-24l18.118,5.353s-1.6,9.924-3.043,22.965c-.342,3.06-.675,6.288-.976,9.6-1.235,13.828-1.968,29.117-.511,39.494a79.906,79.906,0,0,1-1.552,30.752,38.135,38.135,0,0,1-5.04,11.258c-2.631,4.06-5.864,13.239,2.883,28.413,12.353,21.413,25.119,63.414,25.119,63.414Z" transform="translate(-202.393 -220.039)" fill="#ff808e"/>
  <path id="Path_157" data-name="Path 157" d="M607.27,365.75s14.96,23.471-4.67,43.649-11.8-8.236-11.8-8.236l4.941-32.942Z" transform="translate(-370.493 -229.439)" fill="#ff808e"/>
  <path id="Path_158" data-name="Path 158" d="M310.48,363.906a20.365,20.365,0,0,1,3.422-.766c5.353,2.553,8.318,9.64,9.928,17.039a38.32,38.32,0,0,1-5.629,29.344C327.025,385.759,316.047,369.951,310.48,363.906Z" transform="translate(-206.511 -227.903)" opacity="0.1"/>
  <path id="Path_159" data-name="Path 159" d="M443.666,423.646a158.443,158.443,0,0,1-20.276-.449c1.548,7.083-1.647,12.617-4.941,16.224a11.225,11.225,0,0,1-10.154,3.554c-19-3.294-47.89,14-47.89,14s-20.663,16.689-42.455,27.474c-1.235-19.465,1.26-40.651,1.26-40.651.354-.688.688-1.371,1.009-2.059,8.8-1.647,40.791-8.153,47.169-17.707a15.086,15.086,0,0,1,4.365-3.986c5.448-3.525,14.165-6.288,22.454-8.306a89.678,89.678,0,0,1,31.555-2,87.05,87.05,0,0,1,13.408,2.615c1.919.531,3.772,1.1,5.472,1.7,4.661,1.647,8.195,3.488,8.808,5.448C454.278,422.139,449.579,423.259,443.666,423.646Z" transform="translate(-210.703 -254.973)" opacity="0.1"/>
  <path id="Path_160" data-name="Path 160" d="M495.075,416.778c-6.337-.107-11.884-.605-11.884-.605,1.548,7.083-1.647,12.617-4.941,16.224a11.225,11.225,0,0,1-10.154,3.554c-7.161-1.235-15.73.449-23.624,3.022l-13.165-8.388-11.336-7.824c3.294-1.767,5.843-3.706,7.219-5.765,3.657-5.485,15.648-9.566,26.819-12.292a88.977,88.977,0,0,1,44.575.511l.387.1c7.161,2,13.445,4.472,14.281,7.149C514.453,416.316,503.986,416.934,495.075,416.778Z" transform="translate(-270.915 -250.83)" opacity="0.1"/>
  <path id="Path_161" data-name="Path 161" d="M247,358.12s-21.54,2.191-27.82,30.114a28.927,28.927,0,0,1-5.724,11.859c-6.243,7.713-16.566,22.73-15.989,37.147.824,20.589.824,28.825,28,23.06s63.826-35.413,63.826-35.413,28.891-17.266,47.89-14a11.233,11.233,0,0,0,10.154-3.554c3.294-3.607,6.51-9.141,4.941-16.224,0,0,32.119,2.883,30.06-3.706-.824-2.677-7.12-5.151-14.281-7.144a89.04,89.04,0,0,0-44.962-.618c-11.192,2.73-23.163,6.811-26.819,12.292-7.412,11.118-49.414,18.118-49.414,18.118l1.235-1.388a38.473,38.473,0,0,0,8.829-33.5C255.322,367.76,252.37,360.673,247,358.12Z" transform="translate(-140.021 -224.95)" fill="#ffbcc8"/>
  <path id="Path_162" data-name="Path 162" d="M303.976,356.574S302.74,406.4,321.27,398.987s4.118-42.413,4.118-42.413l-8.236-.824Z" transform="translate(-202.675 -223.556)" fill="#ff808e"/>
  <path id="Path_163" data-name="Path 163" d="M422.677,147.264a182.122,182.122,0,0,0,35.961-7.729c3.006-.972,6.271-2.265,7.676-5.09.362-.729.634-1.594,1.347-1.993a2.851,2.851,0,0,1,2.034-.078c4.015.951,7.461,3.467,11.287,5.011s8.7,1.907,11.637-.992c3.471-3.426,2.323-9.314.037-13.618-8.487-16.01-28.368-23.319-46.453-21.993a20.055,20.055,0,0,0-7.412,1.647c-4.843,2.327-7.494,7.5-10.117,12.193C423.57,123.718,396.595,150.15,422.677,147.264Z" transform="translate(-265.922 -73.489)" opacity="0.1"/>
  <path id="Path_164" data-name="Path 164" d="M422.677,144.264a182.121,182.121,0,0,0,35.961-7.729c3.006-.972,6.271-2.265,7.676-5.09.362-.729.634-1.594,1.347-1.993a2.851,2.851,0,0,1,2.034-.078c4.015.951,7.461,3.467,11.287,5.011s8.7,1.907,11.637-.992c3.471-3.426,2.323-9.314.037-13.618-8.487-16.01-28.368-23.319-46.453-21.993a20.055,20.055,0,0,0-7.412,1.647c-4.843,2.327-7.494,7.5-10.117,12.193C423.57,120.718,396.595,147.15,422.677,144.264Z" transform="translate(-265.922 -71.725)" fill="#40243e"/>
  <path id="Path_165" data-name="Path 165" d="M958.39,316.75H874.8a3.809,3.809,0,0,0-3.809,3.809v49a3.809,3.809,0,0,0,3.809,3.809H958.39a3.809,3.809,0,0,0,3.809-3.809v-49A3.809,3.809,0,0,0,958.39,316.75Z" transform="translate(-536.214 -200.616)" fill="url(#linear-gradient-2)"/>
  <rect id="Rectangle_45" data-name="Rectangle 45" width="89.08" height="55.29" rx="11.91" transform="translate(335.835 116.801)" fill="#181f4d"/>
  <rect id="Rectangle_46" data-name="Rectangle 46" width="89.08" height="10.138" transform="translate(335.835 126.478)" fill="#181f4d"/>
  <rect id="Rectangle_47" data-name="Rectangle 47" width="89.08" height="10.138" transform="translate(335.835 126.478)" opacity="0.3"/>
  <rect id="Rectangle_48" data-name="Rectangle 48" width="72.185" height="4.917" transform="translate(344.28 144.139)" fill="#d6d6e3"/>
  <circle id="Ellipse_20" data-name="Ellipse 20" cx="7.066" cy="7.066" r="7.066" transform="translate(343.205 154.273)" fill="#181f4d"/>
  <circle id="Ellipse_21" data-name="Ellipse 21" cx="7.066" cy="7.066" r="7.066" transform="translate(343.205 154.273)" opacity="0.3"/>
  <path id="Path_166" data-name="Path 166" d="M293.942,484.75s-7.824,4.155-9.121,9.232-2.821,6-2.821,6" transform="translate(-189.758 -299.437)" opacity="0.05"/>
  <path id="Path_167" data-name="Path 167" d="M774.647,610.75s-3.706,12.765,0,14.412" transform="translate(-478.574 -373.552)" opacity="0.05"/>
  <path id="Path_168" data-name="Path 168" d="M328,635.162s32.119,7,56-7.412H394.3S425.18,643.4,440,638.868" transform="translate(-216.816 -383.552)" opacity="0.05"/>
  <rect id="Rectangle_49" data-name="Rectangle 49" width="15.569" height="30.34" transform="translate(332.958 241.12) rotate(-66.42)" fill="#8ed16f"/>
  <ellipse id="Ellipse_22" data-name="Ellipse 22" cx="3.195" cy="6.387" rx="3.195" ry="6.387" transform="translate(342.759 240.611) rotate(-66.42)" fill="#8ed16f"/>
  <ellipse id="Ellipse_23" data-name="Ellipse 23" cx="3.195" cy="6.387" rx="3.195" ry="6.387" transform="translate(342.759 240.611) rotate(-66.42)" opacity="0.1"/>
  <rect id="Rectangle_50" data-name="Rectangle 50" width="15.569" height="30.34" transform="translate(373.736 190.282) rotate(-66.42)" fill="#8ed16f"/>
  <ellipse id="Ellipse_24" data-name="Ellipse 24" cx="3.195" cy="6.387" rx="3.195" ry="6.387" transform="translate(383.538 189.773) rotate(-66.42)" fill="#8ed16f"/>
  <ellipse id="Ellipse_25" data-name="Ellipse 25" cx="3.195" cy="6.387" rx="3.195" ry="6.387" transform="translate(383.538 189.773) rotate(-66.42)" opacity="0.1"/>
  <rect id="Rectangle_51" data-name="Rectangle 51" width="15.569" height="30.34" transform="translate(414.079 230.652) rotate(-11.09)" fill="#8ed16f"/>
  <ellipse id="Ellipse_26" data-name="Ellipse 26" cx="3.195" cy="6.387" rx="3.195" ry="6.387" transform="translate(420.079 238.425) rotate(-11.09)" fill="#8ed16f"/>
  <ellipse id="Ellipse_27" data-name="Ellipse 27" cx="3.195" cy="6.387" rx="3.195" ry="6.387" transform="translate(420.079 238.425) rotate(-11.09)" opacity="0.1"/>
  <rect id="Rectangle_52" data-name="Rectangle 52" width="15.569" height="30.34" transform="translate(368.161 310.97) rotate(-66.42)" fill="#8ed16f"/>
  <ellipse id="Ellipse_28" data-name="Ellipse 28" cx="3.195" cy="6.387" rx="3.195" ry="6.387" transform="translate(377.97 310.462) rotate(-66.42)" fill="#8ed16f"/>
  <ellipse id="Ellipse_29" data-name="Ellipse 29" cx="3.195" cy="6.387" rx="3.195" ry="6.387" transform="translate(377.97 310.462) rotate(-66.42)" opacity="0.1"/>
  <rect id="Rectangle_53" data-name="Rectangle 53" width="15.569" height="30.34" transform="translate(299.455 297.484) rotate(-66.42)" fill="#8ed16f"/>
  <ellipse id="Ellipse_30" data-name="Ellipse 30" cx="3.195" cy="6.387" rx="3.195" ry="6.387" transform="translate(309.26 296.977) rotate(-66.42)" fill="#8ed16f"/>
  <ellipse id="Ellipse_31" data-name="Ellipse 31" cx="3.195" cy="6.387" rx="3.195" ry="6.387" transform="translate(309.26 296.977) rotate(-66.42)" opacity="0.1"/>
</svg>
